<svg viewBox="0 0 24 24" fill="none" xmlns="http://www.w3.org/2000/svg"><path fill="currentColor" d="M2.4 1.6H21.6V0H2.4V1.6ZM22.4 2.4V21.6H24V2.4H22.4ZM21.6 22.4H2.4V24H21.6V22.4ZM1.6 21.6V2.4H0V21.6H1.6ZM2.4 22.4C1.96 22.4 1.6 22.04 1.6 21.6H0C0 22.93 1.07 24 2.4 24V22.4ZM22.4 21.6C22.4 22.04 22.04 22.4 21.6 22.4V24C22.93 24 24 22.93 24 21.6H22.4ZM21.6 1.6C22.04 1.6 22.4 1.96 22.4 2.4H24C24 1.07 22.93 0 21.6 0V1.6ZM2.4 0C1.07 0 0 1.07 0 2.4H1.6C1.6 1.96 1.96 1.6 2.4 1.6V0ZM0.8 17.6H23.2V16H0.8V17.6ZM1.37 12.57L7.77 6.17L6.63 5.03L0.23 11.43L1.37 12.57ZM6.63 6.17L17.83 17.37L18.97 16.23L7.77 5.03L6.63 6.17ZM16.8 8C16.36 8 16 7.64 16 7.2H14.4C14.4 8.53 15.47 9.6 16.8 9.6V8ZM17.6 7.2C17.6 7.64 17.24 8 16.8 8V9.6C18.13 9.6 19.2 8.53 19.2 7.2H17.6ZM16.8 6.4C17.24 6.4 17.6 6.76 17.6 7.2H19.2C19.2 5.87 18.13 4.8 16.8 4.8V6.4ZM16.8 4.8C15.47 4.8 14.4 5.87 14.4 7.2H16C16 6.76 16.36 6.4 16.8 6.4V4.8Z"/></svg>
